<svg id="chert2"><rect height="50" width="200" fill="#F2DEA3" fill-opacity="0.5"></rect><circle cx="8.3333333" cy="8.3333333" r="8.3333333" stroke="black" stroke-width="0.2" fill="none"></circle><circle cx="24.9999999" cy="8.3333333" r="8.3333333" stroke="black" stroke-width="0.2" fill="none"></circle><circle cx="41.6666665" cy="8.3333333" r="8.3333333" stroke="black" stroke-width="0.2" fill="none"></circle><circle cx="58.3333331" cy="8.3333333" r="8.3333333" stroke="black" stroke-width="0.2" fill="none"></circle><circle cx="74.99999969999999" cy="8.3333333" r="8.3333333" stroke="black" stroke-width="0.2" fill="none"></circle><circle cx="91.6666663" cy="8.3333333" r="8.3333333" stroke="black" stroke-width="0.2" fill="none"></circle><circle cx="108.33333289999999" cy="8.3333333" r="8.3333333" stroke="black" stroke-width="0.2" fill="none"></circle><circle cx="124.9999995" cy="8.3333333" r="8.3333333" stroke="black" stroke-width="0.2" fill="none"></circle><circle cx="141.6666661" cy="8.3333333" r="8.3333333" stroke="black" stroke-width="0.2" fill="none"></circle><circle cx="158.33333269999997" cy="8.3333333" r="8.3333333" stroke="black" stroke-width="0.2" fill="none"></circle><circle cx="174.99999929999998" cy="8.3333333" r="8.3333333" stroke="black" stroke-width="0.2" fill="none"></circle><circle cx="191.6666659" cy="8.3333333" r="8.3333333" stroke="black" stroke-width="0.2" fill="none"></circle><circle cx="8.3333333" cy="24.9999999" r="8.3333333" stroke="black" stroke-width="0.2" fill="none"></circle><circle cx="24.9999999" cy="24.9999999" r="8.3333333" stroke="black" stroke-width="0.2" fill="none"></circle><circle cx="41.6666665" cy="24.9999999" r="8.3333333" stroke="black" stroke-width="0.2" fill="none"></circle><circle cx="58.3333331" cy="24.9999999" r="8.3333333" stroke="black" stroke-width="0.2" fill="none"></circle><circle cx="74.99999969999999" cy="24.9999999" r="8.3333333" stroke="black" stroke-width="0.2" fill="none"></circle><circle cx="91.6666663" cy="24.9999999" r="8.3333333" stroke="black" stroke-width="0.2" fill="none"></circle><circle cx="108.33333289999999" cy="24.9999999" r="8.3333333" stroke="black" stroke-width="0.2" fill="none"></circle><circle cx="124.9999995" cy="24.9999999" r="8.3333333" stroke="black" stroke-width="0.2" fill="none"></circle><circle cx="141.6666661" cy="24.9999999" r="8.3333333" stroke="black" stroke-width="0.2" fill="none"></circle><circle cx="158.33333269999997" cy="24.9999999" r="8.3333333" stroke="black" stroke-width="0.2" fill="none"></circle><circle cx="174.99999929999998" cy="24.9999999" r="8.3333333" stroke="black" stroke-width="0.2" fill="none"></circle><circle cx="191.6666659" cy="24.9999999" r="8.3333333" stroke="black" stroke-width="0.2" fill="none"></circle><circle cx="8.3333333" cy="41.6666665" r="8.3333333" stroke="black" stroke-width="0.2" fill="none"></circle><circle cx="24.9999999" cy="41.6666665" r="8.3333333" stroke="black" stroke-width="0.2" fill="none"></circle><circle cx="41.6666665" cy="41.6666665" r="8.3333333" stroke="black" stroke-width="0.2" fill="none"></circle><circle cx="58.3333331" cy="41.6666665" r="8.3333333" stroke="black" stroke-width="0.2" fill="none"></circle><circle cx="74.99999969999999" cy="41.6666665" r="8.3333333" stroke="black" stroke-width="0.2" fill="none"></circle><circle cx="91.6666663" cy="41.6666665" r="8.3333333" stroke="black" stroke-width="0.2" fill="none"></circle><circle cx="108.33333289999999" cy="41.6666665" r="8.3333333" stroke="black" stroke-width="0.2" fill="none"></circle><circle cx="124.9999995" cy="41.6666665" r="8.3333333" stroke="black" stroke-width="0.2" fill="none"></circle><circle cx="141.6666661" cy="41.6666665" r="8.3333333" stroke="black" stroke-width="0.2" fill="none"></circle><circle cx="158.33333269999997" cy="41.6666665" r="8.3333333" stroke="black" stroke-width="0.2" fill="none"></circle><circle cx="174.99999929999998" cy="41.6666665" r="8.3333333" stroke="black" stroke-width="0.2" fill="none"></circle><circle cx="191.6666659" cy="41.6666665" r="8.3333333" stroke="black" stroke-width="0.2" fill="none"></circle></svg>