<?xml version="1.0" encoding="UTF-8" standalone="no"?>
<!-- Created with Inkscape (http://www.inkscape.org/) -->

<svg
   xmlns:dc="http://purl.org/dc/elements/1.1/"
   xmlns:cc="http://creativecommons.org/ns#"
   xmlns:rdf="http://www.w3.org/1999/02/22-rdf-syntax-ns#"
   xmlns:svg="http://www.w3.org/2000/svg"
   xmlns="http://www.w3.org/2000/svg"
   xmlns:sodipodi="http://sodipodi.sourceforge.net/DTD/sodipodi-0.dtd"
   xmlns:inkscape="http://www.inkscape.org/namespaces/inkscape"
   width="580mm"
   height="150mm"
   viewBox="0 0 2055.1181 531.49606"
   id="svg4357"
   version="1.1"
   inkscape:version="0.91 r13725"
   sodipodi:docname="gsLarge.svg">
  <defs
     id="defs4359" />
  <sodipodi:namedview
     id="base"
     pagecolor="#ffffff"
     bordercolor="#666666"
     borderopacity="1.0"
     inkscape:pageopacity="0.0"
     inkscape:pageshadow="2"
     inkscape:zoom="0.45732422"
     inkscape:cx="1033.3422"
     inkscape:cy="311.90928"
     inkscape:document-units="px"
     inkscape:current-layer="layer1"
     showgrid="false"
     inkscape:window-width="1440"
     inkscape:window-height="851"
     inkscape:window-x="0"
     inkscape:window-y="1"
     inkscape:window-maximized="1" />
  <metadata
     id="metadata4362">
    <rdf:RDF>
      <cc:Work
         rdf:about="">
        <dc:format>image/svg+xml</dc:format>
        <dc:type
           rdf:resource="http://purl.org/dc/dcmitype/StillImage" />
        <dc:title></dc:title>
      </cc:Work>
    </rdf:RDF>
  </metadata>
  <g
     inkscape:label="Layer 1"
     inkscape:groupmode="layer"
     id="layer1"
     transform="translate(0,-520.86614)">
    <rect
       style="fill:#008000;fill-opacity:0.44871796;stroke:none"
       id="rect4365"
       width="2059.8079"
       height="535.72498"
       x="0"
       y="521.0105" />
    <path
       style="fill:#000000;fill-opacity:0.44871796;stroke:none"
       id="path4375"
       d="m 97.683646,607.62943 c 23.453064,25.03825 47.510994,49.51252 71.349194,74.18588 32.96644,33.85454 67.41286,66.24268 101.97313,98.45756 22.93723,20.93878 44.8128,42.97484 66.67777,65.01907 13.72233,14.31997 28.22217,27.83128 42.6346,41.44194 9.21815,8.9151 19.77546,16.31548 28.7557,25.46528 5.1283,4.00525 9.2411,9.16632 14.18767,13.34875 1.4299,1.29503 2.25816,3.05375 3.6729,4.37524 0.44867,0.52911 0.5944,1.21578 0.9298,1.80293 0.0735,0.12864 0.18884,-0.44834 0.28813,-0.3384 3.05828,3.38626 -0.0894,0.73579 1.27778,1.85652 1.64925,0.37191 1.54007,1.59846 2.88289,2.54608 0.12895,-0.0334 0.2986,-0.19992 0.38686,-0.10015 0.31485,0.35588 0.884,2.00559 1.70902,2.23899 1.63368,0.46216 -1.03968,-0.85448 0.91697,0.20247 0.9453,2.11992 0.83711,0.83302 2.21673,1.55963 0.53868,0.2837 0.9263,0.80497 1.46101,1.09609 0.69727,0.37962 2.3657,0.68471 3.08751,0.84333 3.6576,2.66284 8.31813,3.08927 12.08524,5.39616 2.63276,0.52486 4.08488,2.36689 6.10569,3.84423 0,0 -27.65807,17.28409 -27.65807,17.28409 l 0,0 c -1.65043,-1.54464 -3.51643,-2.4241 -5.57504,-3.36762 -3.89113,-1.6691 -7.9199,-3.02645 -11.75534,-4.83201 -2.6036,-0.93092 -5.26117,-2.07964 -7.33671,-3.91397 -1.623,-0.84561 -2.17637,-2.30764 -3.44789,-3.06863 -1.27682,-1.37394 -1.36014,-1.39252 -3.01171,-2.81569 -0.81844,-1.03427 -1.94174,-1.86883 -2.55543,-3.27061 -1.1176,-1.40488 -2.02607,-2.9698 -3.274,-4.26612 -4.62577,-4.56218 -8.85267,-9.53847 -13.78144,-13.80655 -8.8684,-9.14319 -19.21699,-16.67998 -28.27485,-25.64037 C 339.46308,889.34664 325.18871,875.64729 311.65634,861.20564 290.1576,839.0069 268.80523,816.66523 246.21193,795.56468 212.08967,762.92795 178.30275,729.93336 144.85677,696.6036 120.37991,672.17772 95.93097,647.67707 70.404572,624.34607 c 0,0 27.279074,-16.71664 27.279074,-16.71664 z"
       inkscape:connector-curvature="0" />
    <path
       style="fill:#000000;fill-opacity:0.44871796;stroke:none"
       id="path4377"
       d="m 471.91041,595.27893 c 24.94514,16.62832 49.36066,33.96869 73.25925,52.07259 33.22336,25.33122 66.26339,50.89945 99.17706,76.63131 22.90999,17.55551 45.81003,35.12808 69.33891,51.8489 15.69845,11.27687 30.92329,23.1701 46.44825,34.68054 11.42864,8.57178 22.4335,17.6269 33.2578,26.94455 7.70811,6.68477 15.52287,13.27873 23.95276,19.04114 4.33054,2.82057 8.53534,5.78277 12.71828,8.82194 0.36997,0.1039 0.78125,0.11257 1.1099,0.31172 0.82898,0.50232 2.03531,1.93217 2.71546,2.56783 1.48141,1.38453 3.10429,2.65081 4.62576,3.99286 5.08029,4.54237 10.10739,9.34706 14.44896,14.62879 4.31973,4.77638 8.86028,9.32512 13.27934,14.00523 2.99722,2.9178 6.02828,5.8267 8.91881,8.84084 3.10159,2.48099 5.1839,5.842 7.76075,8.80281 3.47795,3.26077 6.14117,7.22871 9.94814,10.12618 1.60968,2.1898 4.32172,3.15764 6.25289,4.9286 3.06857,2.81402 -0.19491,0.45532 2.01268,1.97992 0.59426,0.46367 1.23715,0.32828 1.91915,0.50026 0,0 -27.07434,18.32486 -27.07434,18.32486 l 0,0 c -0.90329,-0.39817 -1.76191,-0.88333 -2.48268,-1.57026 -2.55058,-2.47506 -5.43351,-4.5399 -8.04117,-6.97179 -3.75156,-3.21949 -6.7627,-7.13871 -10.29734,-10.58823 -2.50098,-2.93173 -4.69452,-6.07481 -7.66808,-8.58691 -3.03394,-2.9326 -5.82604,-6.07748 -8.86067,-9.00956 -4.35464,-4.78897 -8.9287,-9.37321 -13.18585,-14.25426 -4.33549,-5.09342 -9.2695,-9.77653 -14.41867,-14.03405 -2.74856,-2.32283 -5.34239,-4.8825 -8.48566,-6.66352 -3.86414,-3.25451 -8.22098,-5.88125 -12.22381,-8.956 -8.27518,-6.07323 -16.17702,-12.64445 -23.80678,-19.50892 -10.62823,-9.36246 -21.57668,-18.30911 -32.79221,-26.9628 -15.3466,-11.604 -30.42598,-23.54886 -45.93252,-34.94182 -23.20391,-16.98184 -45.71498,-34.88745 -68.32952,-52.64032 -32.6335,-25.98117 -65.30302,-51.91631 -98.82097,-76.76176 -24.38149,-17.89277 -49.22956,-35.23829 -75.58193,-50.14183 0,0 26.85805,-17.45884 26.85805,-17.45884 z"
       inkscape:connector-curvature="0" />
    <path
       style="fill:#000000;fill-opacity:0.44871796;stroke:none"
       id="path4379"
       d="m 925.08795,640.50786 c 30.59391,4.86217 58.07593,21.29394 84.76185,36.08312 60.1777,36.73173 115.9828,80.09447 171.383,123.55297 36.2625,28.26447 71.7208,57.58543 108.579,85.08509 17.2526,12.87204 24.2583,17.29541 41.7313,29.05425 23.932,15.57411 49.4399,29.33525 76.9246,37.53133 3.7067,1.10535 7.5007,1.89321 11.2511,2.83981 14.7319,3.03305 29.8165,3.75182 44.7987,4.65022 5.6285,-0.20733 11.0252,0.88733 16.4793,2.04059 1.7746,0.80311 3.9181,2.48869 4.989,4.21133 1.7091,0.96688 2.2152,3.39753 3.2527,4.96878 1.1161,1.69033 2.3951,3.26812 3.5418,4.93785 4.5539,6.90262 9.6274,13.42766 13.8238,20.55877 3.6316,5.00883 6.6256,10.39493 9.8709,15.64803 0.8052,0.8539 1.0516,3.024 2.4787,2.9478 0,0 -27.3552,17.7859 -27.3552,17.7859 l 0,0 c -1.4837,-1.2637 -2.3516,-2.654 -3.1171,-4.4525 -3.2815,-5.264 -5.8329,-10.9412 -9.6188,-15.9039 -4.0636,-7.1016 -9.2408,-13.42688 -13.777,-20.22699 -2.4424,-3.25313 -4.6435,-6.66968 -7.2417,-9.74724 -0.951,-1.03857 -2.1724,-1.95146 -3.5682,-2.20668 -5.162,-1.24221 -10.3964,-1.79064 -15.7052,-1.99991 -14.787,-1.29611 -29.7045,-2.22029 -44.154,-5.83113 -3.703,-1.06945 -7.4471,-2.00555 -11.109,-3.20834 -27.1699,-8.92427 -52.1738,-23.23779 -75.7333,-39.24487 -18.0009,-12.64099 -23.112,-15.92294 -40.9359,-29.77069 -36.1796,-28.10867 -70.9262,-58.04097 -107.3409,-85.85575 -55.6469,-43.4012 -111.5144,-87.0648 -173.08403,-121.91193 -19.15451,-9.97209 -37.99999,-19.91132 -58.52375,-26.82355 -8.05724,-2.71361 -14.48137,-4.47094 -22.74912,-5.4645 -2.00099,-0.24046 -4.0281,-0.14666 -6.04215,-0.22 0,0 26.1896,-19.02786 26.1896,-19.02786 z"
       inkscape:connector-curvature="0" />
    <path
       style="fill:#000000;fill-opacity:0.44871796;stroke:none"
       id="path4381"
       d="m 1351.7236,636.14855 c 1.7875,0.37455 3.6407,0.51432 5.3623,1.12364 3.634,1.28614 7.0902,3.02822 10.6368,4.53875 10.8155,4.60644 17.5338,7.27793 28.3187,12.65552 16.8582,8.40583 23.9921,12.95864 41.1024,22.88184 29.0693,16.53418 56.9011,35.06792 84.8203,53.43406 27.9266,18.37104 55.4623,37.05217 82.9176,56.11923 38.0536,26.70952 74.9573,54.9975 112.5685,82.30961 15.7207,11.0438 31.2219,22.3727 47.5658,32.48788 6.3553,3.29176 12.2624,6.93646 17.7173,11.56116 4.2435,3.78506 8.4948,7.59848 13.2195,10.77417 6.555,5.08054 14.3908,7.41406 22.1493,9.92811 9.9586,2.85391 19.8918,5.71506 29.6279,9.27196 7.4767,3.09302 14.5176,7.20399 21.0309,11.9889 1.9564,0.91684 3.0598,2.93869 4.6236,4.24993 0.2535,0.21253 0.6515,0.16605 0.9316,0.34205 0.4715,0.29627 1.2959,1.17438 1.716,1.60251 0.3295,0.46435 2.937,3.22011 3.1871,2.94339 0.8577,-0.19381 1.8461,-0.24096 2.7898,-0.27896 1.7975,-0.058 3.5956,-0.0104 5.3932,0.008 3.371,0.008 6.7422,-0.01 10.1131,0.0139 2.545,-0.0391 5.0908,-0.0108 7.6355,-0.0527 1.1211,-0.0223 0.5138,-0.17294 1.6171,0.95313 0,0 -27.4373,17.79959 -27.4373,17.79959 l 0,0 c 0.075,0.65307 0.1993,0.44645 -0.5826,0.42989 -2.496,-0.0433 -4.9933,-0.0127 -7.4896,-0.0524 -3.3873,0.0244 -6.7748,0.008 -10.1622,0.031 -1.8571,0.028 -3.7148,0.0987 -5.572,0.0527 -1.3807,-0.0965 -2.641,-0.40111 -3.8007,-1.19463 -1.1831,-1.19067 -2.3922,-2.3492 -3.5196,-3.59426 -2.1487,-2.0753 -4.4591,-3.97969 -6.6785,-5.98911 -6.2555,-4.59261 -12.9579,-8.57739 -20.1935,-11.43424 -9.7603,-3.46091 -19.7244,-6.22531 -29.6595,-9.13192 -8.0422,-2.63069 -16.0359,-5.36386 -22.8547,-10.55886 -4.7647,-3.31228 -9.1755,-7.0931 -13.4755,-10.98513 -5.3252,-4.41281 -11.0865,-8.01853 -17.05,-11.51908 -15.7288,-10.67376 -30.7889,-22.23969 -45.8748,-33.80012 -36.7073,-27.95143 -73.0047,-56.44272 -110.2563,-83.67952 -54.662,-38.44029 -109.7747,-76.56815 -168.4098,-108.77949 -19.1668,-10.1222 -38.1222,-20.21837 -58.1852,-28.46521 -7.0742,-2.90783 -16.8104,-6.78464 -24.4731,-8.54018 -1.7995,-0.41228 -3.6804,-0.29714 -5.5205,-0.44572 0,0 26.1511,-18.99995 26.1511,-18.99995 z"
       inkscape:connector-curvature="0" />
    <path
       style="fill:#000000;fill-opacity:0.44871796;stroke:none"
       id="path4383"
       d="m 1765.0903,581.87578 c 12.149,2.98559 23.0633,9.06219 33.5798,15.63882 11.7316,8.15149 22.6862,17.46857 33.0584,27.28296 8.8566,7.85456 17.4434,16.16337 26.9953,23.18277 5.8293,4.5292 12.4079,7.79361 19.2929,10.36717 2.4108,0.81943 4.5952,2.17658 6.9009,3.1945 1.8567,0.81966 3.1042,1.11337 4.7163,2.45205 2.2731,2.74467 4.2176,5.63178 5.8869,8.76979 2.0122,5.54433 5.7157,10.08372 9.0473,14.86784 5.4403,7.01346 10.9071,13.98518 16.8499,20.58042 5.4864,5.4417 10.1345,11.6569 15.6874,17.02925 3.2131,1.9908 6.2059,4.22378 9.4163,6.19163 2.719,0.9914 5.5287,1.35316 8.415,1.30121 4.4032,0.64144 8.4917,2.54397 12.8155,3.44841 4.6023,1.75497 8.0474,4.69834 10.9151,8.62758 1.1285,1.72974 2.2578,3.41702 3.6104,4.97591 0,0 -27.8388,16.69199 -27.8388,16.69199 l 0,0 c -1.3069,-1.65924 -2.4519,-3.40135 -3.6469,-5.14297 -2.5154,-3.31644 -5.6504,-5.67383 -9.722,-6.79052 -4.064,-1.25946 -8.1961,-2.57391 -12.4668,-2.83281 -3.2624,-0.29398 -6.6342,-0.89507 -9.4503,-2.65846 -3.2984,-2.14682 -6.4026,-4.56125 -9.5193,-6.96325 -5.436,-5.52674 -10.0549,-11.80705 -15.5095,-17.32608 -6.1074,-6.62997 -11.5876,-13.79101 -17.1976,-20.8416 -3.4479,-4.84857 -7.4467,-9.33421 -9.5448,-14.99691 -1.508,-2.67469 -3.1001,-5.2873 -5.2294,-7.52582 -3.4133,-2.10012 -7.3501,-3.33096 -10.9419,-5.08558 -6.9561,-2.93256 -13.5584,-6.57406 -19.4944,-11.28222 -9.3474,-7.38784 -17.9691,-15.69521 -26.7888,-23.69355 -10.3068,-9.5954 -21.0471,-18.85858 -32.7348,-26.74033 -10.3602,-6.31667 -21.2214,-12.34675 -33.4395,-13.98521 0,0 26.3374,-18.73699 26.3374,-18.73699 z"
       inkscape:connector-curvature="0" />
  </g>
</svg>
